<?xml version="1.0" encoding="UTF-8"?>
<svg id="Layer_2" xmlns="http://www.w3.org/2000/svg" viewBox="0 0 58.52 64">
  <defs>
    <style>
      .cls-1 {
        fill: #c3bab2;
      }

      .cls-2 {
        fill: #8f7c70;
      }

      .cls-3 {
        fill: #aa9d94;
      }

      .cls-4 {
        fill: #f14e4e;
      }

      .cls-5 {
        fill: #f16969;
      }

      .cls-6 {
        fill: #f2917f;
      }

      .cls-7 {
        fill: #753e1d;
      }
    </style>
  </defs>
  <g id="Layer_1-2" data-name="Layer_1">
    <g>
      <path class="cls-2" d="M14.85,30.35c.56-.65,1.47-1.24,1.58-1.96.09-.6-.82-1.3-1.18-2.02-1.58-3.11-1.74-6.42-1.12-9.78.4-2.17,1.04-4.27,2.13-6.2.32-.57.41-1.15.41-1.78.03-2.5.83-4.77,2.08-6.91.4-.68.89-.98,1.73-.97,2,.02,3.89.43,5.64,1.4.69.38,1.27.36,2.02.11,6.05-2.02,11.93-1.62,17.6,1.36.78.41,1.49.6,2.42.45,2.67-.4,5.22.22,7.66,1.31.58.26.92.65.94,1.3.06,2.15.22,4.32-.69,6.35-.34.77-.23,1.47-.02,2.23.96,3.41,1.78,6.85,1.56,10.43-.27,4.42-1.84,8.17-5.66,10.72-.76.51-1.62.79-2.57,1.2,1.2,1.6,2.08,3.31,2.52,5.22.23.97.17,2.11.67,2.9.5.8,1.76.75,2.63,1.25,1.93,1.12,3.33,2.55,3.31,4.96-.02,2.23-1.3,3.88-3.49,4.24-2.7.45-5.43.39-8.14.1-.97-.11-1.86-.09-2.79.28-1.55.62-3.18,1.01-4.81,1.36-.67.14-1.04.42-.88,1.17.68,3.17-2.68,5.69-6.52,4.71-2.43-.63-4.04-2.31-5.2-4.42-1.75-3.2-2.8-6.68-3.77-10.18-.99-3.6-1.54-7.28-1.8-11-.11-1.52-.17-1.55-1.65-1.52-.68.01-1.31-.24-1.98-.25-.42-.44-1.01-.59-1.5-.9-.94-.96-1.63-2.02-1.52-3.44.12-.57.03-1.19.37-1.71ZM49.32,47.29c.9-.27,1.24-.84,1.17-1.81-.17-2.43-1.02-4.61-2.49-6.5-.72-.92-1.46-2.09-3-1.73-.46-.11-.92-.21-1.37-.33-.29-.08-.55-.24-.49-.58.05-.29.34-.28.58-.28.71,0,1.43,0,2.14,0,3.34.11,6.02-1.13,7.86-3.96,1.02-1.56,1.76-3.29,1.88-5.16.08-1.24.35-2.55-.2-3.78.09-2.41-.28-4.75-1.08-7.02-.5-1.4-.48-2.74.11-4.16.55-1.31.71-2.76.62-4.21-.03-.47-.14-.8-.63-.99-2.23-.87-4.52-1.17-6.87-.7-.66.13-1.15.05-1.74-.3-3.29-1.99-6.89-3.01-10.73-2.97-2.33.02-4.63.47-6.81,1.37-.9.37-1.7.4-2.57-.16-1.34-.87-2.91-1.14-4.44-1.49-.55-.13-.89.06-1.15.57-.88,1.71-1.64,3.46-1.52,5.44.06,1-.21,1.86-.66,2.73-1.65,3.15-2.44,6.5-2.2,10.06.15,2.24.86,4.27,2.47,5.93.54.55,1,.77,1.85.54,2.5-.67,4.37.16,5.92,2.28,1.08,1.48,1.7,3.2,2.71,4.71.18.27.42.62.08.9-.41.32-.71,0-.96-.3-.18-.22-.31-.48-.45-.73-.51-.92-1.01-1.84-1.52-2.75-.69-1.22-1.48-2.36-2.83-2.93-1.63-.69-4.51.1-5.89,1.57-1.4,1.48-.78,3.69,1.22,4.07,1.36.26,2.77.22,3.99-.66.35-.25.7-.5,1.04-.76.2-.15.41-.26.64-.08.26.2.34.45.13.74-.51.72-.41,1.55-.39,2.36.05,2.05-.03,4.09.22,6.14.23,1.88.25,3.8.66,5.65.81,3.63,1.97,7.16,3.72,10.46.94,1.78,2.32,3.14,4.37,3.66,1.25.31,2.95-.4,3.64-1.45.57-.86.24-1.71-.05-2.47-.24-.63-.83.02-1.27-.01-.41-.03-.82-.07-.84-.56-.02-.4.34-.49.69-.57,3.19-.73,6.39-1.46,9.47-2.6.6-.22,1.19-.34,1.82-.21,2.7.52,5.43.28,8.14.18,1.95-.07,2.89-1.83,2.17-3.61-.87-2.17-4.47-3.63-6.6-2.67-.26.12-.52.23-.8.29-.23.05-.49,0-.57-.29-.06-.2,0-.38.18-.49.2-.13.41-.24.62-.36Z"/>
      <path class="cls-4" d="M16.55,3.89c.04.64-.17,1.23-.39,1.8-.76,2.01-2.1,3.6-3.67,5.04-.5.45-1,.49-1.57.23-1.74-.78-3.48-1.57-4.96-2.79-1.06-.87-1.8-1.96-2.12-3.31-.35-1.52-.02-2.85,1.17-3.89C6.16-.02,7.5-.03,8.76.61c.79.4,1.31.3,2.05-.09,2.8-1.47,5.8.34,5.74,3.37ZM14.58,4.18c0-1.78-1.24-2.64-2.55-2.13-.57.22-1.13.49-1.58.95-.48.49-1.01.49-1.51.01-.42-.41-.88-.73-1.47-.81-1.2-.18-1.8.34-1.8,1.56,0,.93.31,1.71.95,2.44,1.22,1.38,2.95,1.87,4.47,2.73.23.13.46.14.65-.06,1.4-1.45,2.61-3,2.83-4.7Z"/>
      <path class="cls-4" d="M6.49,24.98c-1.67.06-3.14,0-4.47-.8-.67-.41-1.23-.91-1.59-1.61-1.04-1.97-.13-4.08,2.05-4.55.81-.17,1.32-.46,1.76-1.19.78-1.3,2.03-1.91,3.54-1.62,1.44.27,2.32,1.29,2.7,2.68.55,2,.26,3.98-.26,5.94-.14.53-.53.76-1.05.82-.95.11-1.89.23-2.67.33ZM8.83,20.2c.05-.72,0-1.42-.29-2.09-.38-.9-1.4-1.32-2.21-.84-.52.3-.76.83-.92,1.39q-.38,1.3-1.7,1.11c-.73-.11-1.38.11-1.69.76-.28.6-.04,1.18.49,1.65.33.29.69.51,1.09.66.71.27,1.45.42,2.23.34,2.84-.31,2.87-.03,3.01-2.97Z"/>
      <path class="cls-4" d="M16,35.51c.49.31,1.08.46,1.5.9-1.14,1.53-2.71,2.3-4.57,2.58-1.06.16-1.98-.15-2.81-.75-1.7-1.22-1.77-3.11-.15-4.43.39-.32.62-.58.7-1.12.36-2.48,1.78-3.24,4.18-2.33-.34.52-.25,1.14-.37,1.71-.19-.02-.38,0-.57-.05-1.15-.29-1.3-.18-1.35,1.01,0,.14-.01.29,0,.43.1.79-.14,1.32-.93,1.7-1.05.5-1.04,1.13-.08,1.73.49.31.99.43,1.62.23,1.06-.34,1.98-.88,2.82-1.6Z"/>
      <path class="cls-1" d="M45.85,36.06c-.71,0-1.43,0-2.14,0-.23,0-.53,0-.58.28-.06.34.2.5.49.58.46.12.92.22,1.37.33,0,.61.53.86.85,1.26,2.08,2.56,3.49,5.39,3.46,8.78-.21.12-.42.23-.62.36-.18.11-.23.29-.18.49.09.29.34.34.57.29.27-.05.54-.17.8-.29,2.13-.96,5.72.5,6.6,2.67.71,1.77-.22,3.53-2.17,3.61-2.71.1-5.44.34-8.14-.18-.63-.12-1.21,0-1.82.21-3.08,1.14-6.27,1.87-9.47,2.6-.35.08-.71.17-.69.57.02.49.44.53.84.56.44.03,1.03-.61,1.27.01.29.76.62,1.61.05,2.47-.69,1.05-2.39,1.76-3.64,1.45-2.05-.51-3.42-1.88-4.37-3.66-1.75-3.3-2.91-6.83-3.72-10.46-.41-1.85-.43-3.77-.66-5.65-.26-2.05-.18-4.09-.22-6.14-.02-.81-.12-1.64.39-2.36.21-.29.13-.54-.13-.74-.23-.18-.44-.08-.64.08-.34.26-.69.51-1.04.76-1.22.88-2.63.92-3.99.66-2-.38-2.62-2.59-1.22-4.07,1.38-1.47,4.26-2.26,5.89-1.57,1.35.57,2.14,1.71,2.83,2.93.52.91,1.01,1.84,1.52,2.75.14.25.27.51.45.73.24.3.55.63.96.3.34-.28.1-.62-.08-.9-1.01-1.51-1.63-3.23-2.71-4.71-1.55-2.12-3.41-2.95-5.92-2.28-.85.23-1.31,0-1.85-.54-1.61-1.66-2.32-3.69-2.47-5.93-.24-3.56.55-6.91,2.2-10.06.46-.87.72-1.73.66-2.73-.12-1.98.64-3.73,1.52-5.44.26-.51.6-.69,1.15-.57,1.53.35,3.1.63,4.44,1.49.87.56,1.67.53,2.57.16,2.18-.9,4.48-1.35,6.81-1.37,3.83-.04,7.44.98,10.73,2.97.59.35,1.08.44,1.74.3,2.35-.47,4.64-.17,6.87.7.49.19.61.52.63.99.08,1.45-.07,2.9-.62,4.21-.6,1.42-.61,2.75-.11,4.16.8,2.27,1.17,4.61,1.08,7.02-.26.11-.33.32-.33.57,0,1.44-.35,2.83-.88,4.14-.89,2.21-1.88,4.36-3.98,5.76-1.04.69-2.13,1.23-3.29,1.67-.38.15-1.04.05-1.07.74ZM49.86,9.35c.78.52.88.69,1.23,1.8.05.17.21.32.33.46.32.36.7.67.96,1.06.4.6.69.42.9-.08.51-1.19.64-2.47.89-3.72.06-.29-.05-.57-.29-.77-1.21-.98-3.34-1.74-5.1-.67.46.68,1,1.25,1.85,1.51-.24.13-.44.24-.77.41ZM45.87,42.76c0-.33,0-.67,0-1-.01-.27-.15-.47-.43-.47-.28,0-.41.2-.42.46-.01.29.02.58-.01.86-.19,1.71-.82,3.23-2.14,4.38-.86.75-2.01.79-2.92.21-.92-.59-1.19-1.41-1.01-2.56.14-.93.69-1.67,1.01-2.5.15-.4.75-.87.14-1.24-.74-.45-.8.43-1.07.78-.66.84-.92,1.89-1.14,2.9-.32,1.49.32,2.78,1.6,3.53,1.08.63,3.08.47,4.04-.35,1.54-1.31,2.28-3,2.35-5ZM22.63,21.73c-1.22,0-2.6,1.2-2.56,2.22.04,1.07,1.34,2.3,2.49,2.35,1.25.05,2.66-1.2,2.62-2.33-.04-1.1-1.33-2.24-2.56-2.24ZM46.44,25.02c0,1.22,1.02,2.17,2.33,2.16,1.56,0,2.56-.89,2.56-2.28,0-1.11-1.33-2.33-2.5-2.28-1.22.05-2.39,1.22-2.39,2.39ZM27.59,23.74c1.17-.01,2.16-.97,2.13-2.05-.04-1.09-1.04-1.96-2.24-1.94-1.23.02-2.14.9-2.1,2.04.03,1.13.98,1.96,2.21,1.95ZM43.39,24.35c1.21-.02,2.18-.91,2.15-1.98-.03-1.09-1.03-2-2.2-2-1.13,0-2.1.95-2.09,2.06,0,1.2.83,1.94,2.14,1.92ZM25.11,5.19c-1.09-1.09-2.38-1.36-3.8-1.28-.24.01-.5,0-.63.24-.78,1.49-1.46,3.01-1.52,4.96.99-.75,1.54-1.66,2.51-2.03.12-.04.29-.21.28-.27-.2-.75.33-.58.73-.62.3-.03.64.16.91-.11,0-.27-.3-.41-.2-.67.52-.21,1.11.09,1.72-.22ZM36.54,24.87c.83,0,1.5-.48,1.76-1.21.15-.42.11-.78-.3-.98-.47-.24-.63.04-.78.48-.25.74-.97.82-1.35.36-.66-.82-1.16-.73-1.9-.18-.31.23-.87.46-.86-.47,0-.61-.57-.66-1-.16-.28.32-.33.65-.15,1.05.24.52.54.92,1.17.85,1.11-.11,2.22-.37,3.26.26.03.02.09,0,.14,0Z"/>
      <path class="cls-3" d="M45.85,36.06c.03-.7.69-.6,1.07-.74,1.16-.44,2.25-.98,3.29-1.67,2.1-1.4,3.09-3.55,3.98-5.76.53-1.32.88-2.7.88-4.14,0-.25.07-.47.33-.57.54,1.23.28,2.53.2,3.78-.12,1.87-.86,3.6-1.88,5.16-1.84,2.83-4.52,4.07-7.86,3.96Z"/>
      <path class="cls-5" d="M16,35.51c-.84.71-1.75,1.26-2.82,1.6-.63.2-1.12.08-1.62-.23-.96-.6-.97-1.23.08-1.73.79-.38,1.03-.9.93-1.7-.02-.14,0-.29,0-.43.04-1.19.19-1.3,1.35-1.01.18.05.38.04.57.05-.11,1.42.58,2.48,1.52,3.44Z"/>
      <path class="cls-3" d="M49.32,47.29c.03-3.39-1.39-6.22-3.46-8.78-.32-.4-.85-.64-.85-1.26,1.53-.36,2.28.81,3,1.73,1.47,1.89,2.32,4.07,2.49,6.5.07.97-.27,1.54-1.17,1.81Z"/>
      <path class="cls-5" d="M14.58,4.18c-.21,1.7-1.43,3.25-2.83,4.7-.19.2-.42.19-.65.06-1.52-.86-3.25-1.35-4.47-2.73-.64-.73-.95-1.51-.95-2.44,0-1.22.6-1.74,1.8-1.56.59.09,1.05.4,1.47.81.49.48,1.03.48,1.51-.01.45-.46,1.01-.73,1.58-.95,1.31-.51,2.55.35,2.55,2.13Z"/>
      <path class="cls-5" d="M8.83,20.2c-.14,2.94-.17,2.66-3.01,2.97-.77.08-1.51-.06-2.23-.34-.4-.15-.76-.37-1.09-.66-.53-.47-.77-1.05-.49-1.65.31-.66.96-.87,1.69-.76q1.31.2,1.7-1.11c.16-.56.41-1.09.92-1.39.81-.47,1.83-.06,2.21.84.28.67.33,1.38.29,2.09Z"/>
      <path class="cls-6" d="M49.86,9.35c.32-.17.53-.28.77-.41-.85-.26-1.39-.83-1.85-1.51,1.77-1.06,3.89-.31,5.1.67.24.2.35.47.29.77-.25,1.25-.38,2.54-.89,3.72-.21.5-.51.68-.9.08-.26-.39-.64-.71-.96-1.06-.13-.14-.28-.29-.33-.46-.36-1.12-.45-1.28-1.23-1.8Z"/>
      <path class="cls-2" d="M45.87,42.76c-.07,2-.81,3.69-2.35,5-.96.82-2.96.98-4.04.35-1.28-.75-1.92-2.04-1.6-3.53.22-1.01.48-2.06,1.14-2.9.27-.35.33-1.23,1.07-.78.6.36.01.84-.14,1.24-.32.84-.87,1.57-1.01,2.5-.18,1.15.09,1.97,1.01,2.56.91.58,2.06.54,2.92-.21,1.33-1.15,1.95-2.67,2.14-4.38.03-.28,0-.57.01-.86.01-.27.14-.47.42-.46.28,0,.42.2.43.47.01.33,0,.67,0,1Z"/>
      <path class="cls-6" d="M22.63,21.73c1.22,0,2.52,1.14,2.56,2.24.04,1.13-1.37,2.38-2.62,2.33-1.15-.05-2.45-1.28-2.49-2.35-.04-1.03,1.35-2.23,2.56-2.22Z"/>
      <path class="cls-6" d="M46.44,25.02c0-1.17,1.16-2.34,2.39-2.39,1.17-.05,2.5,1.17,2.5,2.28,0,1.39-1,2.28-2.56,2.28-1.31,0-2.33-.94-2.33-2.16Z"/>
      <path class="cls-7" d="M27.59,23.74c-1.23.01-2.18-.82-2.21-1.95-.03-1.14.87-2.02,2.1-2.04,1.2-.02,2.2.85,2.24,1.94.03,1.08-.96,2.04-2.13,2.05Z"/>
      <path class="cls-7" d="M43.39,24.35c-1.31.02-2.14-.72-2.14-1.92,0-1.11.96-2.06,2.09-2.06,1.17,0,2.17.91,2.2,2,.03,1.07-.94,1.97-2.15,1.98Z"/>
      <path class="cls-6" d="M25.11,5.19c-.61.31-1.2,0-1.72.22-.1.27.2.41.2.67-.26.28-.6.09-.91.11-.4.03-.92-.13-.73.62.02.07-.16.23-.28.27-.97.36-1.52,1.27-2.51,2.03.06-1.95.73-3.47,1.52-4.96.13-.24.39-.23.63-.24,1.42-.08,2.71.19,3.8,1.28Z"/>
      <path class="cls-2" d="M36.54,24.87s-.11.02-.14,0c-1.05-.63-2.16-.38-3.26-.26-.63.06-.93-.33-1.17-.85-.18-.4-.13-.73.15-1.05.43-.5,1-.44,1,.16,0,.93.55.7.86.47.74-.55,1.24-.64,1.9.18.37.46,1.1.38,1.35-.36.15-.44.31-.72.78-.48.4.2.44.56.3.98-.26.74-.93,1.21-1.76,1.21Z"/>
    </g>
  </g>
</svg>